<?xml version="1.0" encoding="utf-8"?>
<!-- Generator: Adobe Illustrator 22.0.1, SVG Export Plug-In . SVG Version: 6.00 Build 0)  -->
<svg version="1.1"
	 id="Livello_1" xmlns:cc="http://creativecommons.org/ns#" xmlns:dc="http://purl.org/dc/elements/1.1/" xmlns:inkscape="http://www.inkscape.org/namespaces/inkscape" xmlns:rdf="http://www.w3.org/1999/02/22-rdf-syntax-ns#" xmlns:sodipodi="http://sodipodi.sourceforge.net/DTD/sodipodi-0.dtd" xmlns:svg="http://www.w3.org/2000/svg"
	 xmlns="http://www.w3.org/2000/svg" xmlns:xlink="http://www.w3.org/1999/xlink" x="0px" y="0px" viewBox="0 0 100 100.8"
	 style="enable-background:new 0 0 100 100.8;" xml:space="preserve">
<g transform="translate(0,-952.36218)">
	<path d="M19.8,961.4c-0.6,0.1-1,0.5-0.9,1.1s0.5,1,1.1,0.9h3v38c0,0.6,0.4,1,1,1s1-0.4,1-1c0,0,0,0,0,0v-14h24v22H25v-2
		c0-0.6-0.4-1-1-1c-0.1,0-0.1,0-0.2,0c-0.5,0.1-0.9,0.5-0.9,1v2H13c-0.1,0-0.1,0-0.2,0c-0.6,0.1-1,0.5-0.9,1.1s0.5,1,1.1,0.9l0,0h3
		v30h-3c-0.1,0-0.1,0-0.2,0c-0.6,0.1-1,0.5-0.9,1.1s0.5,1,1.1,0.9h74c0.6,0,1-0.4,1-1s-0.4-1-1-1c0,0,0,0,0,0h-4v-30h4
		c0.6,0,1-0.4,1-1c0-0.6-0.4-1-1-1c0,0,0,0,0,0H77v-46h3c0.6,0,1-0.4,1-1c0-0.6-0.4-1-1-1c0,0,0,0,0,0H20
		C19.9,961.4,19.9,961.4,19.8,961.4z M25,963.4h24v22H25V963.4z M51,963.4h24v22H51V963.4z M36,967.3c-0.3,0-0.6,0.2-0.8,0.4l-4,5
		c-0.3,0.4-0.3,1.1,0.2,1.4s1.1,0.3,1.4-0.2l0,0l4-5c0.4-0.4,0.3-1-0.1-1.4C36.5,967.4,36.2,967.3,36,967.3z M41.9,971.3
		c-0.3,0-0.5,0.2-0.7,0.4l-6,7c-0.4,0.4-0.5,1-0.1,1.4c0.4,0.4,1,0.5,1.4,0.1c0.1-0.1,0.2-0.2,0.2-0.3l6-7c0.4-0.4,0.3-1-0.1-1.4
		C42.5,971.4,42.2,971.3,41.9,971.3z M51,987.4h24v22H51V987.4z M62,991.3c-0.3,0-0.6,0.2-0.8,0.4l-4,5c-0.3,0.4-0.3,1.1,0.2,1.4
		s1.1,0.3,1.4-0.2l4-5c0.4-0.4,0.3-1-0.1-1.4C62.5,991.4,62.2,991.3,62,991.3z M67.9,995.3c-0.3,0-0.5,0.2-0.7,0.4l-6,7
		c-0.4,0.4-0.5,1-0.1,1.4c0.4,0.4,1,0.5,1.4,0.1c0.1-0.1,0.2-0.2,0.2-0.3l6-7c0.4-0.4,0.3-1-0.1-1.4
		C68.5,995.4,68.2,995.3,67.9,995.3z M18,1011.4h11v30H18V1011.4z M31,1011.4h11v30H31V1011.4z M44,1011.4h11v30H44V1011.4z
		 M57,1011.4h11v30H57V1011.4z M70,1011.4h11v30H70V1011.4z"/>
</g>
</svg>
