<?xml version="1.0" encoding="utf-8"?>
<!-- Generator: Adobe Illustrator 22.0.1, SVG Export Plug-In . SVG Version: 6.00 Build 0)  -->
<svg version="1.1" id="Livello_1" xmlns="http://www.w3.org/2000/svg" xmlns:xlink="http://www.w3.org/1999/xlink" x="0px" y="0px"
	 viewBox="0 0 100 107.9" style="enable-background:new 0 0 100 107.9;" xml:space="preserve">
<path d="M71,28h-2.1c0.7-1.4,1-2.9,1-4.5c0-5.9-4.8-10.7-10.7-10.7c-3.5,0-6.7,1.7-8.7,4.5c-1.9-2.7-5.1-4.6-8.7-4.6
	c-5.9,0-10.7,4.8-10.7,10.7c0,1.6,0.4,3.2,1,4.5H28c-0.6,0-1,0.4-1,1s0.4,1,1,1h5.4c2,2.5,5,4.1,8.4,4.1c3.4,0,6.5-1.6,8.4-4.1h0.6
	c2,2.6,5.1,4.1,8.4,4.1c3.4,0,6.5-1.6,8.4-4.1H71c0.6,0,1-0.4,1-1S71.6,28,71,28z M59.3,14.8c4.8,0,8.7,3.9,8.7,8.7
	c0,1.7-0.5,3.2-1.3,4.5H51.9c-0.1-0.1-0.2-0.3-0.2-0.4c0.5-1.3,0.8-2.7,0.8-4.1c0-1.5-0.3-2.8-0.8-4.1
	C53.2,16.6,56.1,14.8,59.3,14.8z M33.2,23.5c0-4.8,3.9-8.7,8.7-8.7c4.8,0,8.7,3.9,8.7,8.7c0,1.7-0.5,3.2-1.3,4.5H34.5
	C33.7,26.7,33.2,25.1,33.2,23.5z M41.9,32.1c-2.2,0-4.2-0.8-5.7-2.1h11.3C46,31.3,44,32.1,41.9,32.1z M59.3,32.1
	c-2.1,0-4.1-0.8-5.7-2.1H65C63.5,31.3,61.5,32.1,59.3,32.1z M47.9,23.2c-0.6-0.1-1,0.3-1.1,0.9c-0.1,0.8-0.4,1.6-0.9,2.3
	c-0.3,0.5-0.2,1.1,0.2,1.4c0.2,0.1,0.4,0.2,0.6,0.2c0.3,0,0.6-0.1,0.8-0.4c0.7-1,1.1-2.1,1.3-3.2C48.9,23.8,48.5,23.3,47.9,23.2z
	 M47.4,22.1c0.1,0,0.3,0,0.4-0.1c0.5-0.2,0.7-0.8,0.5-1.3c-1.1-2.6-3.6-4.3-6.5-4.3c-0.5,0-1,0-1.4,0.1c-0.5,0.1-0.9,0.6-0.8,1.2
	c0.1,0.5,0.6,0.9,1.2,0.8c0.3-0.1,0.7-0.1,1-0.1c2,0,3.8,1.2,4.6,3.1C46.6,21.9,47,22.1,47.4,22.1z M60.3,18.5
	c2.1,0.4,3.7,2.1,4,4.2c0.1,0.5,0.5,0.9,1,0.9c0,0,0.1,0,0.1,0c0.5-0.1,0.9-0.6,0.9-1.1c-0.4-3-2.7-5.3-5.6-5.9
	c-0.5-0.1-1.1,0.2-1.2,0.8C59.4,17.9,59.7,18.4,60.3,18.5z"/>
<path d="M74.1,71.4c-0.4-0.4-1-0.4-1.4,0L59.8,84.2c-0.4,0.4-0.4,1,0,1.4c0.2,0.2,0.5,0.3,0.7,0.3c0.3,0,0.5-0.1,0.7-0.3l12.9-12.8
	C74.5,72.4,74.5,71.8,74.1,71.4z M73.6,76.9l-5.4,5.4c-0.4,0.4-0.4,1,0,1.4c0.2,0.2,0.5,0.3,0.7,0.3s0.5-0.1,0.7-0.3l5.4-5.4
	c0.4-0.4,0.4-1,0-1.4S74,76.5,73.6,76.9z M83.8,39.7l-1.7-3.1c-0.2-0.3-0.5-0.5-0.9-0.5H79V6c0-0.3-0.1-0.5-0.3-0.7
	C78.5,5.1,78.3,5,78,5h0L21,5.1c-0.6,0-1,0.4-1,1V36h-1.9c-0.4,0-0.7,0.2-0.9,0.5l-1.7,3.1c-0.1,0.2-0.1,0.4-0.1,0.6l4.7,53.9
	c0,0.5,0.5,0.9,1,0.9h57.1c0.5,0,1-0.3,1-0.9l4.7-54C83.9,40,83.9,39.8,83.8,39.7z M18,47l-0.5-6h64.4l-0.5,6H18z M60.7,49l-0.5,2
	H38.8l-0.5-2H60.7z M22,7h55v29h-2V10c0-0.6-0.4-1-1-1H25c-0.3,0-0.5,0.1-0.7,0.3S24,9.7,24,10l0.1,26H22V7z M26,36V11h47v25H26z
	 M80.6,38l0.6,1h-63l0.6-1H80.6z M77.3,93H22l-3.9-44h18.1l0.8,3.2c0.1,0.4,0.5,0.8,1,0.8h23c0.5,0,0.9-0.3,1-0.8l0.8-3.2h18.4
	L77.3,93z M31,41.5c-0.6,0-1,0.4-1,1v3.2c0,0.6,0.4,1,1,1s1-0.4,1-1v-3.2C32,41.9,31.6,41.5,31,41.5z M24.6,41.7
	c-1.3,0-2.4,1.1-2.4,2.4c0,1.3,1.1,2.4,2.4,2.4s2.4-1.1,2.4-2.4C27,42.8,25.9,41.7,24.6,41.7z M24.6,44.5c-0.2,0-0.4-0.2-0.4-0.4
	s0.2-0.4,0.4-0.4s0.4,0.2,0.4,0.4S24.8,44.5,24.6,44.5z M36.9,43.1c0.7,0,1.2,0.5,1.2,1.2s-0.5,1.2-1.2,1.2s-1.2-0.5-1.2-1.2
	S36.2,43.1,36.9,43.1z M42.2,43.1c0.7,0,1.2,0.5,1.2,1.2s-0.5,1.2-1.2,1.2S41,44.9,41,44.2S41.5,43.1,42.2,43.1z M47.3,43.1
	c0.7,0,1.2,0.5,1.2,1.2s-0.5,1.2-1.2,1.2s-1.2-0.5-1.2-1.2S46.6,43.1,47.3,43.1z"/>
</svg>
