<?xml version="1.0" encoding="utf-8"?>
<!-- Generator: Adobe Illustrator 22.0.1, SVG Export Plug-In . SVG Version: 6.00 Build 0)  -->
<svg version="1.1" id="Livello_1" xmlns="http://www.w3.org/2000/svg" xmlns:xlink="http://www.w3.org/1999/xlink" x="0px" y="0px"
	 viewBox="0 0 100 82.5" style="enable-background:new 0 0 100 82.5;" xml:space="preserve">
<title>icons_furniture_2</title>
<path d="M89.9,28.1c-1.1,0-2.2,0.2-3.2,0.7V28c0-6.4-5.2-11.5-11.5-11.5H24.5C18.1,16.5,13,21.6,13,28v0.7c-4-1.5-8.5,0.6-10,4.6
	c-1.4,3.8,0.4,8.1,4.1,9.8v18.6c0,0.6,0.4,1,1,1h5.2v3.6c0,0.6,0.4,1,1,1h6.4c0.3,0,0.7-0.2,0.8-0.4l2.7-4.2H75l2.7,4.2
	c0.2,0.3,0.5,0.5,0.8,0.4h6.4c0.6,0,1-0.4,1-1v-3.6h6c0.6,0,1-0.4,1-1V43.1c4-1.7,5.8-6.3,4.1-10.2C95.9,30,93.1,28.1,89.9,28.1
	L89.9,28.1z M15,28c0-5.3,4.3-9.5,9.5-9.5h50.7c5.3,0,9.5,4.3,9.5,9.5v2.1c-1.5,1.4-2.5,3.3-2.6,5.4v8.9H17.9v-9
	c-0.1-2.2-1.2-4.2-2.9-5.6V28z M82.1,46.4v5.5H17.9v-5.5H82.1z M20.1,65.3h-4.9v-2.6h6.6L20.1,65.3z M83.9,65.3h-4.9l-1.7-2.6h6.6
	L83.9,65.3z M91.7,41.4c-0.4,0.1-0.7,0.5-0.7,1v18.3H9.1V42.4c0-0.5-0.3-0.9-0.7-1c-3.1-0.9-4.8-4.2-3.8-7.3s4.2-4.8,7.3-3.8
	c2.3,0.7,3.9,2.7,4.1,5.1v17.4c0,0.6,0.4,1,1,1h66.3c0.6,0,1-0.4,1-1V35.4c0.2-3.2,2.9-5.6,6.1-5.4c3.2,0.2,5.6,2.9,5.4,6.1
	c-0.1,2.4-1.8,4.5-4.1,5.2L91.7,41.4z"/>
</svg>
