<?xml version="1.0" encoding="utf-8"?>
<!-- Generator: Adobe Illustrator 22.0.1, SVG Export Plug-In . SVG Version: 6.00 Build 0)  -->
<svg version="1.1" id="Livello_1" xmlns="http://www.w3.org/2000/svg" xmlns:xlink="http://www.w3.org/1999/xlink" x="0px" y="0px"
	 viewBox="0 0 64 64.2" style="enable-background:new 0 0 64 64.2;" xml:space="preserve">
<title>thermometer termometer temperature celcius</title>
<g>
	<path d="M37,35.2V13c0-2.8-2.2-5-5-5s-5,2.2-5,5v22.2c-5.4,2.8-7.6,9.4-4.8,14.8s9.4,7.6,14.8,4.8c5.4-2.8,7.6-9.4,4.8-14.8
		C40.7,37.9,39.1,36.3,37,35.2z M32,54c-5,0-9-4-9-9c0-3.6,2.1-6.8,5.4-8.3c0.4-0.2,0.6-0.5,0.6-0.9V13c0-1.7,1.3-3,3-3
		c1.7,0,3,1.3,3,3v22.8c0,0.4,0.2,0.8,0.6,0.9c4.6,2,6.6,7.3,4.6,11.9C38.8,51.9,35.6,54,32,54z"/>
	<path d="M33,41.1V17c0-0.6-0.4-1-1-1s-1,0.4-1,1v24.1c-2.1,0.6-3.4,2.7-2.9,4.9c0.6,2.1,2.7,3.4,4.9,2.9s3.4-2.7,2.9-4.9
		C35.5,42.6,34.4,41.5,33,41.1z M32,47c-1.1,0-2-0.9-2-2s0.9-2,2-2c1.1,0,2,0.9,2,2S33.1,47,32,47z"/>
</g>
</svg>
