<?xml version="1.0" encoding="utf-8"?>
<!-- Generator: Adobe Illustrator 22.0.1, SVG Export Plug-In . SVG Version: 6.00 Build 0)  -->
<svg version="1.1" id="Livello_1" xmlns="http://www.w3.org/2000/svg" xmlns:xlink="http://www.w3.org/1999/xlink" x="0px" y="0px"
	 viewBox="0 0 100 94.3" style="enable-background:new 0 0 100 94.3;" xml:space="preserve">
<path d="M84.4,80.5H19.8V25.4l32.9-14.6l31.7,14.6V80.5z M22,78.4h60.3V26.8L52.7,13.2L22,26.8V78.4z"/>
<path d="M44.8,69.4h-2V30.3h10.6c6.2,0,11.2,5,11.2,11.2s-5,11.2-11.2,11.2h-8.6C44.8,52.7,44.8,69.4,44.8,69.4z M44.8,50.7h8.6
	c5.1,0,9.2-4.1,9.2-9.2s-4.1-9.2-9.2-9.2h-8.6C44.8,32.3,44.8,50.7,44.8,50.7z"/>
</svg>
