<?xml version="1.0" encoding="utf-8"?>
<!-- Generator: Adobe Illustrator 22.0.1, SVG Export Plug-In . SVG Version: 6.00 Build 0)  -->
<svg version="1.1" id="Livello_1" xmlns="http://www.w3.org/2000/svg" xmlns:xlink="http://www.w3.org/1999/xlink" x="0px" y="0px"
	 viewBox="0 0 100 103.4" style="enable-background:new 0 0 100 103.4;" xml:space="preserve">
<g>
	<path d="M72.3,22.1c0.5,0.2,1,0.3,1.5,0.3h0c3.2,0,5.6-3.7,6.3-7.4c0.8-3.9-0.4-6.9-3.1-8c-0.7-0.3-1.3-0.4-1.9-0.4
		c-0.3,0-0.7,0-1,0.1c-3.6,1.1-5.6,5.1-5.7,8.6C68.2,18.5,69.7,21.1,72.3,22.1z M70,15.4c0.1-2.8,1.8-6.3,4.6-7.1
		c0.5-0.1,1.1-0.1,1.9,0.2c2.2,0.9,2.5,3.8,2.1,6.2c-0.6,3-2.5,6.1-4.7,6.1c-0.3,0-0.6-0.1-0.9-0.2C70.1,19.5,69.9,16.6,70,15.4z"/>
	<path d="M83.5,28.8c3.6,0,8.9-3.4,9.9-7.2c0.3-1.3,0.3-3.7-3-5.5c-0.7-0.4-1.6-0.6-2.5-0.6c-3.9,0-8.5,3.6-9.3,7.4
		c-0.5,2.4,0.6,4.4,3,5.5C82.1,28.6,82.7,28.8,83.5,28.8z M80.1,23.2c0.7-3,4.6-6.1,7.7-6.1c0.7,0,1.3,0.1,1.8,0.4
		c1.8,0.9,2.5,2.1,2.2,3.6c-0.7,2.8-5.1,6-8.3,6c-0.5,0-0.9-0.1-1.3-0.2C80.4,26.1,79.7,24.8,80.1,23.2z"/>
	<path d="M61.9,23.9L61.9,23.9c0.1,0,0.2,0,0.3,0c1.8-0.4,3.3-1.8,4.1-4c1.2-2.8,1.1-6.2-0.2-8.3c-1.1-1.8-3-2.9-4.9-2.9
		c-0.8,0-1.5,0.2-2.2,0.6c-2.9,1.6-3.2,5.3-2.6,8.2C57.1,20.4,59.1,23.7,61.9,23.9z M59.8,10.7c0.5-0.3,0.9-0.4,1.4-0.4
		c1.3,0,2.6,0.8,3.4,2.2c1,1.6,1,4.6,0.1,6.8c-0.4,0.9-1.2,2.5-2.9,3l0,0l0,0c-1.6-0.2-3.2-2.4-3.8-5.2
		C57.5,14.8,57.7,11.9,59.8,10.7z"/>
	<path d="M94.1,31.8c-1.1-1.4-2.8-2.1-4.7-2.1c-2.6,0-5.4,1.3-7.1,3.3c-1.2,1.5-1.7,3.2-1.4,4.9c0,0.1,0,0.1,0.1,0.2
		c0.5,1.1,1,1.8,1.8,2.3l0.5,0.3c1.2,0.6,2.4,1.2,3.6,1.2l0.3,0c2.7,0,5.9-2.2,7.3-5C95.3,35.1,95.2,33.2,94.1,31.8z M92.9,36.3
		c-1.1,2.2-3.7,4-5.8,4l-0.3,0c-0.9,0-1.9-0.5-2.9-1.1L83.5,39c-0.4-0.2-0.6-0.6-1.1-1.5l0,0c-0.2-1.5,0.5-2.7,1.1-3.5
		c1.4-1.6,3.7-2.7,5.8-2.7c1,0,2.5,0.3,3.4,1.5C93.7,34,93.4,35.3,92.9,36.3z"/>
	<path d="M73.7,27.4c-2.1-1.5-4.7-2.3-7.5-2.3c-4.8,0-10.1,2.3-13.9,6c-1.4,1.4-2.8,2.8-3,4.5c-0.5,3.7,3.6,5.3,7,6.5l0,0
		c1.5,0.6,2.9,1.1,3.7,1.7c1.3,0.9,2.1,2.5,3,4.2c1.3,2.5,2.7,5,5.4,5.7c0.3,0.1,0.6,0.1,0.8,0.1c3.4,0,6.3-4.9,7.5-7.8
		C79.1,40.2,79.8,31.7,73.7,27.4z M75.2,45.5c-1.3,3.3-3.9,6.8-6,6.8c-0.1,0-0.3,0-0.4-0.1c-2-0.5-3.2-2.7-4.4-4.9
		c-1-1.8-2-3.6-3.5-4.8c-1-0.8-2.6-1.3-4.2-2c-3.7-1.4-6.2-2.5-5.9-4.8c0.2-1.2,1.3-2.4,2.5-3.6c3.5-3.4,8.4-5.5,12.8-5.5
		c2.5,0,4.7,0.7,6.6,2C78.1,32.5,77.4,40.1,75.2,45.5z"/>
	<path d="M60.2,67.7c-2.3-0.9-4.9-1-7.2-0.2l-0.2,0.1l-0.1-0.2L33.6,26l0.2-0.1c4.3-2.5,6.2-7.8,4.4-12.4c-1.5-3.9-5.2-6.4-9.4-6.4
		c-1.3,0-2.5,0.2-3.7,0.7c-2.8,1.1-5,3.4-5.9,6.2l-0.1,0.2l-0.2-0.1c-1.2-0.5-2.5-0.8-3.8-0.8c-4.1,0-7.8,2.5-9.3,6.3
		c-2.1,5.1,0.4,11.1,5.5,13.2c2.3,0.9,4.9,1,7.2,0.2l0.2-0.1l0.1,0.2l19.1,41.4l-0.2,0.1c-4.3,2.5-6.2,7.8-4.4,12.4
		c1.5,3.9,5.2,6.4,9.4,6.4c1.3,0,2.5-0.2,3.7-0.7c2.8-1.1,5-3.4,5.9-6.2l0.1-0.2l0.2,0.1c1.2,0.5,2.5,0.8,3.8,0.8
		c4.1,0,7.8-2.5,9.3-6.3c1-2.5,1-5.2,0-7.7C64.6,70.7,62.7,68.7,60.2,67.7z M62.7,82.6c-1.6,1.8-3.9,2.9-6.3,2.9
		c-1.9,0-3.8-0.6-5.2-1.8c-0.2,4.2-3.4,7.7-7.6,8.1c-0.3,0-0.6,0-0.8,0c-4.4,0-8-3.3-8.4-7.6c-0.3-3.2,1.3-6.4,4-8.1
		c0.3-0.2,0.6-0.3,0.9-0.5c0.2-0.1,0.5-0.2,0.8-0.3L19.4,30.7c-0.2,0.1-0.5,0.3-0.7,0.4c-0.3,0.2-0.7,0.3-1,0.4
		c-0.9,0.3-1.8,0.4-2.7,0.4c-2.1,0-4-0.8-5.6-2.1c-1.7-1.5-2.7-3.6-2.8-5.8c-0.1-2.3,0.6-4.4,2.1-6.1c1.6-1.8,3.9-2.9,6.3-2.9
		c1.9,0,3.8,0.6,5.2,1.8c0.2-4.2,3.4-7.7,7.6-8.1c0.3,0,0.6,0,0.8,0c4.4,0,8,3.3,8.4,7.6c0.3,3.2-1.3,6.4-4,8.1
		c-0.3,0.2-0.6,0.3-0.9,0.5c-0.2,0.1-0.5,0.2-0.8,0.3L52,69.8c0.2-0.1,0.5-0.3,0.7-0.4c0.3-0.2,0.7-0.3,1-0.4
		c0.9-0.3,1.8-0.4,2.7-0.4c2.1,0,4,0.8,5.6,2.1c1.7,1.5,2.7,3.6,2.8,5.8C65,78.8,64.2,80.9,62.7,82.6z"/>
</g>
</svg>
