<?xml version="1.0" encoding="utf-8"?>
<!-- Generator: Adobe Illustrator 22.0.1, SVG Export Plug-In . SVG Version: 6.00 Build 0)  -->
<svg version="1.1" id="Livello_1" xmlns="http://www.w3.org/2000/svg" xmlns:xlink="http://www.w3.org/1999/xlink" x="0px" y="0px"
	 viewBox="0 0 66 70" style="enable-background:new 0 0 66 70;" xml:space="preserve">
<g>
	<path d="M8.1,10.2C8.1,10.2,8.1,10.2,8.1,10.2C8,10.3,8,10.4,8,10.6C8,17.3,8,56,8,64c0,0.4,0.3,0.8,0.8,0.8h48.5
		c0.4,0,0.8-0.3,0.8-0.8c0-8,0-46.7,0-53.4c0-0.1,0-0.2-0.1-0.3c0,0,0,0,0,0l-4.1-8.6c-0.1-0.3-0.4-0.4-0.7-0.4H12.9
		c-0.3,0-0.5,0.2-0.7,0.4L8.1,10.2z M56.5,54.7h-47V11.3h47V54.7z M56.5,63.2h-47v-7.1h47V63.2z M13.3,2.8h39.3l3.4,7.1H9.9
		L13.3,2.8z"/>
	<path d="M33,50.3c7.7,0,14-6.3,14-14c0-7.7-6.3-14-14-14c-7.7,0-14,6.3-14,14C19,44,25.3,50.3,33,50.3z M33,23.7
		c6.9,0,12.5,5.6,12.5,12.5c0,6.9-5.6,12.5-12.5,12.5c-6.9,0-12.5-5.6-12.5-12.5C20.5,29.3,26.1,23.7,33,23.7z"/>
	<path d="M33,46.1c5.5,0,9.9-4.4,9.9-9.9h-1.5c0,4.6-3.8,8.4-8.4,8.4c-4.6,0-8.4-3.8-8.4-8.4c0-4.6,3.8-8.4,8.4-8.4v-1.5
		c-5.4,0-9.9,4.4-9.9,9.9C23.1,41.7,27.5,46.1,33,46.1z"/>
	<circle cx="50.8" cy="17" r="2.3"/>
	<circle cx="41.4" cy="17" r="2.3"/>
	<circle cx="48.3" cy="6.3" r="1.6"/>
	<circle cx="42.5" cy="6.3" r="1.6"/>
	<circle cx="36.6" cy="6.3" r="1.6"/>
	<rect x="16" y="5.5" width="15.1" height="1.5"/>
</g>
</svg>
