<?xml version="1.0" encoding="utf-8"?>
<!-- Generator: Adobe Illustrator 22.0.1, SVG Export Plug-In . SVG Version: 6.00 Build 0)  -->
<svg version="1.1" id="Livello_1" xmlns="http://www.w3.org/2000/svg" xmlns:xlink="http://www.w3.org/1999/xlink" x="0px" y="0px"
	 viewBox="0 0 48 46.9" style="enable-background:new 0 0 48 46.9;" xml:space="preserve">
<title>wheelchair</title>
<path d="M27.9,32.8c0.1-0.1,0.1-0.2,0.1-0.3c0-0.1,0-0.2-0.1-0.3c-0.1-4.6-3.8-8.2-8.4-8.2h-0.1c-4.7,0-8.5,3.8-8.5,8.5
	c0,0.4,0,0.7,0.1,1.1c0,0.3,0.1,0.5,0.1,0.8c0.1,0.3,0.1,0.5,0.2,0.8c0.1,0.2,0.2,0.5,0.3,0.8s0.2,0.5,0.3,0.7
	c0.8,1.4,1.9,2.6,3.3,3.3c1.3,0.7,2.7,1.1,4.1,1.1h0.1c0.3,0,0.7,0,1-0.1c1.1-0.1,2.1-0.5,3-1c2-1.1,3.5-3,4.1-5.2
	C27.8,34.1,27.9,33.4,27.9,32.8z M20,25c1.4,0.1,2.7,0.6,3.9,1.4L20,30.8V25z M19,31.1l-3.9-4.7c1.2-0.8,2.5-1.3,3.9-1.4V31.1z
	 M20,33.8l3.9,4.7c-0.3,0.2-0.5,0.4-0.8,0.5c-0.9,0.5-2,0.9-3.1,1V33.8z M24.6,37.8L20.6,33h6.3c0,0.2,0,0.3,0,0.5
	C26.7,35.2,25.9,36.7,24.6,37.8L24.6,37.8z M26.9,32h-6.6l4.4-4.9C26,28.4,26.8,30.1,26.9,32z M12.9,28.9c0.4-0.7,0.9-1.3,1.4-1.8
	l4.1,4.9H12C12.1,30.9,12.4,29.8,12.9,28.9L12.9,28.9z M12.9,36.1c-0.1-0.2-0.2-0.4-0.3-0.5s0-0.1,0-0.1c-0.1-0.2-0.2-0.4-0.2-0.6
	c-0.1-0.2-0.1-0.4-0.2-0.7s-0.1-0.5-0.1-0.6c0,0,0-0.1,0-0.1c0-0.1,0-0.3,0-0.4h6L14,37.6C13.5,37.1,13.2,36.7,12.9,36.1L12.9,36.1z
	 M14.7,38.3l4.3-4.9V40c-1.1-0.1-2.2-0.4-3.2-0.9C15.4,38.9,15,38.6,14.7,38.3L14.7,38.3z"/>
<path d="M42.5,36h-2.7L35,26.4v-5.2l0,0c0-1.2-1-2.2-2.2-2.2H29v-1.3c0-2.1-1.7-3.7-3.7-3.7H13V7.5C13,7.2,12.8,7,12.5,7h-4
	C7.7,7,7,7.7,7,8.5S7.7,10,8.5,10H10v18c-0.7,1.4-1,2.9-1,4.5C9,38.3,13.7,43,19.5,43c2.7,0,5.4-1.1,7.3-3H31c0.3,1.9,2.1,3.2,4,2.9
	c1.9-0.3,3.2-2.1,2.9-4c-0.2-1.5-1.4-2.7-2.9-2.9v-7.4l4,8.1c0.1,0.2,0.3,0.3,0.5,0.3h3c0.3,0,0.5-0.2,0.5-0.5S42.7,36,42.5,36
	L42.5,36z M34,21.2V26h-6.3c-0.1-0.1-0.2-0.3-0.4-0.4c-0.1-0.2-0.2-0.3-0.4-0.4c-0.1-0.2-0.3-0.3-0.5-0.4l-0.4-0.4L25.6,24l-0.5-0.3
	c-0.2-0.1-0.4-0.2-0.6-0.3c-0.2-0.1-0.3-0.2-0.5-0.3l-0.6-0.3l-0.5-0.2c-0.2-0.1-0.5-0.1-0.7-0.2s-0.3-0.1-0.5-0.1s-0.5-0.1-0.8-0.1
	l-0.4-0.1C20.3,22,19.9,22,19.5,22c-0.3,0-0.6,0-1,0h-0.3l-0.6,0.1l-0.4,0.1c-0.2,0-0.4,0.1-0.6,0.1l-0.4,0.1l-0.6,0.2l-0.3,0.1
	c-0.2,0.1-0.4,0.2-0.6,0.3l-0.3,0.1c-0.2,0.1-0.5,0.3-0.7,0.4l-0.1,0.1c-0.2,0.2-0.5,0.3-0.7,0.5V20h19.9C33.5,20,34,20.5,34,21.2
	L34,21.2z M25.3,15c1.5,0,2.7,1.2,2.7,2.7V19H13v-4H25.3z M8.5,9C8.2,9,8,8.8,8,8.5S8.2,8,8.5,8H12v17.1l-0.1,0.1
	c-0.3,0.3-0.6,0.7-0.9,1L11,26.3V9.5C11,9.2,10.8,9,10.5,9H8.5z M10,32.5c0-1.4,0.4-2.9,1-4.1c0.1-0.2,0.2-0.5,0.4-0.7
	c1.7-2.9,4.8-4.6,8.1-4.7c0.4,0,0.7,0,1.1,0.1c2.2,0.3,4.2,1.3,5.8,2.9c0.2,0.3,0.5,0.6,0.7,0.9l0,0c3.1,4.2,2.3,10.2-1.9,13.3
	c-1.6,1.2-3.6,1.9-5.7,1.9C14.3,42,10,37.7,10,32.5z M28.3,38.3l0.1-0.1c0.1-0.2,0.3-0.4,0.4-0.7l0.1-0.3c0.1-0.2,0.2-0.4,0.2-0.6
	c0-0.1,0.1-0.2,0.1-0.3s0.1-0.4,0.2-0.5s0.1-0.2,0.1-0.4s0.1-0.4,0.1-0.6s0-0.2,0.1-0.3s0.1-0.4,0.1-0.6s0-0.2,0-0.3
	c0-0.3,0-0.7,0-1c0-0.4,0-0.9-0.1-1.3c0-0.1,0-0.2,0-0.4s0-0.2-0.1-0.3s-0.1-0.3-0.1-0.5s-0.1-0.2-0.1-0.4s-0.1-0.3-0.1-0.4
	c-0.2-0.5-0.4-1-0.6-1.5c0,0,0-0.1,0-0.1c-0.1-0.2-0.2-0.4-0.4-0.6H34v9h-0.1h-0.2l-0.4,0.1L33,36.2c-0.1,0.1-0.3,0.1-0.4,0.2
	l-0.2,0.1c-0.3,0.2-0.6,0.5-0.9,0.9c0,0-0.1,0.1-0.1,0.2c-0.1,0.1-0.1,0.2-0.2,0.4l-0.1,0.2c0,0.1-0.1,0.3-0.1,0.4
	c0,0.1,0,0.1,0,0.2L31,39h-3.2C27.9,38.8,28.1,38.5,28.3,38.3z M37,39.5c0,1.4-1.1,2.5-2.5,2.5S32,40.9,32,39.5s1.1-2.5,2.5-2.5
	S37,38.1,37,39.5z"/>
</svg>
